<svg xmlns="http://www.w3.org/2000/svg" xmlns:xlink="http://www.w3.org/1999/xlink">
  <symbol id="1" viewBox="0 0 81 81">
    <path d="M35.2481 37.4063H35.1968V28.7995C35.1968 28.1347 34.6587 27.5965 33.9938 27.5965H32.458V16.028C32.458 15.7096 32.3313 15.4032 32.106 15.1771L22.7525 5.81875C22.4084 5.47471 21.8919 5.37045 21.4412 5.55811C20.9913 5.74417 20.6986 6.18285 20.6986 6.66966V27.5965H19.1636C18.4988 27.5965 17.9606 28.1347 17.9606 28.7995V37.4063H17.9061C17.2413 37.4063 16.7031 37.9445 16.7031 38.6093V74.506C16.7031 75.1708 17.2413 75.7089 17.9061 75.7089H35.2489C35.9138 75.7089 36.4519 75.1708 36.4519 74.506V38.6093C36.4511 37.9445 35.913 37.4063 35.2481 37.4063ZM23.1045 9.57523L30.0521 16.526V27.5965H23.1045V9.57523ZM20.3666 30.0025H32.7908V37.4063H20.3666V30.0025ZM34.0451 73.3022H19.1083V39.8115H19.1628H33.993H34.0443V73.3022H34.0451Z" stroke-width="2.2"/>
    <path d="M60.442 39.867V31.9065C60.442 31.2417 59.9039 30.7036 59.2391 30.7036H54.6092V21.2915H56.951C57.6159 21.2915 58.154 20.7534 58.154 20.0886C58.154 19.4237 57.6159 18.8856 56.951 18.8856H54.6092V16.073H56.951C57.6159 16.073 58.154 15.5349 58.154 14.8701C58.154 14.2052 57.6159 13.6671 56.951 13.6671H54.6092V10.853H56.951C57.6159 10.853 58.154 10.3148 58.154 9.64999C58.154 8.98515 57.6159 8.44702 56.951 8.44702H54.6092V6.59848C54.6092 5.93364 54.0711 5.39551 53.4063 5.39551C52.7414 5.39551 52.2033 5.93364 52.2033 6.59848V8.44702H49.8615C49.1967 8.44702 48.6586 8.98515 48.6586 9.64999C48.6586 10.3148 49.1967 10.853 49.8615 10.853H52.2033V13.6671H49.8615C49.1967 13.6671 48.6586 14.2052 48.6586 14.8701C48.6586 15.5349 49.1967 16.073 49.8615 16.073H52.2033V18.8856H49.8615C49.1967 18.8856 48.6586 19.4237 48.6586 20.0886C48.6586 20.7534 49.1967 21.2915 49.8615 21.2915H52.2033V30.7036H47.5735C46.9086 30.7036 46.3705 31.2417 46.3705 31.9065V39.867C45.8083 39.968 45.3809 40.4573 45.3809 41.0483V74.5053C45.3809 75.1702 45.919 75.7083 46.5838 75.7083H60.2287C60.8936 75.7083 61.4317 75.1702 61.4317 74.5053V41.0483C61.4317 40.4573 61.0042 39.968 60.442 39.867ZM48.7764 33.1095H58.0361V39.8453H48.7764V33.1095ZM59.0257 73.3024H47.7868V42.2513H59.0257V73.3024Z"  stroke-width="2.2"/>
  </symbol>

  <symbol id="2" viewBox="0 0 81 81">
    <path d="M27.3757 66.9163C29.0555 66.9163 30.4173 65.5545 30.4173 63.8747C30.4173 62.1948 29.0555 60.833 27.3757 60.833C25.6958 60.833 24.334 62.1948 24.334 63.8747C24.334 65.5545 25.6958 66.9163 27.3757 66.9163Z" stroke-width="4.86667" stroke-linecap="round" stroke-linejoin="round"/>
    <path d="M60.8327 66.9163C62.5125 66.9163 63.8743 65.5545 63.8743 63.8747C63.8743 62.1948 62.5125 60.833 60.8327 60.833C59.1528 60.833 57.791 62.1948 57.791 63.8747C57.791 65.5545 59.1528 66.9163 60.8327 66.9163Z" stroke-width="4.86667" stroke-linecap="round" stroke-linejoin="round"/>
    <path d="M3.04102 3.04199H15.2077L23.3593 43.7699C23.6375 45.1703 24.3993 46.4282 25.5115 47.3235C26.6236 48.2188 28.0152 48.6943 29.4427 48.667H59.0077C60.4351 48.6943 61.8267 48.2188 62.9389 47.3235C64.051 46.4282 64.8129 45.1703 65.091 43.7699L69.9577 18.2503H18.2493" stroke-width="4.86667" stroke-linecap="round" stroke-linejoin="round"/>
  </symbol>

  <symbol id="3" viewBox="0 0 81 81">
    <g clip-path="url(#clip0_525_411)">
    <path d="M65.4724 15.209L57.5128 3.7118C56.7179 2.56758 55.6582 1.63248 54.4239 0.986186C53.1896 0.33989 51.8174 0.00155119 50.4242 0L16.5758 0C15.1826 0.00155119 13.8104 0.33989 12.5761 0.986186C11.3418 1.63248 10.2821 2.56758 9.4872 3.7118L1.5276 15.209C0.534958 16.6471 0.00227057 18.3526 0 20.1L0 58.3704C0 60.6591 0.909188 62.8541 2.52755 64.4725C4.14592 66.0908 6.34089 67 8.6296 67H58.3704C60.6591 67 62.8541 66.0908 64.4725 64.4725C66.0908 62.8541 67 60.6591 67 58.3704V20.1C66.9977 18.3526 66.465 16.6471 65.4724 15.209ZM50.4242 6.7C50.7354 6.69967 51.042 6.77514 51.3175 6.9199C51.593 7.06465 51.8291 7.27433 52.0054 7.5308L56.9902 14.74H36.8902V6.7H50.4242ZM14.9946 7.5308C15.1709 7.27433 15.407 7.06465 15.6825 6.9199C15.958 6.77514 16.2646 6.69967 16.5758 6.7H30.15V14.74H10.05L14.9946 7.5308ZM60.3 58.3704C60.3018 58.6243 60.2531 58.876 60.1567 59.1109C60.0604 59.3458 59.9183 59.5593 59.7388 59.7388C59.5593 59.9183 59.3458 60.0604 59.1109 60.1567C58.876 60.2531 58.6243 60.3018 58.3704 60.3H8.6296C8.3757 60.3018 8.12399 60.2531 7.88907 60.1567C7.65416 60.0604 7.44073 59.9183 7.2612 59.7388C7.08166 59.5593 6.93959 59.3458 6.84325 59.1109C6.74691 58.876 6.69822 58.6243 6.7 58.3704V23.115C6.7 22.6708 6.87647 22.2447 7.1906 21.9306C7.50472 21.6165 7.93076 21.44 8.375 21.44H58.625C59.0692 21.44 59.4953 21.6165 59.8094 21.9306C60.1235 22.2447 60.3 22.6708 60.3 23.115V58.3704Z"/>
    <path d="M43.5496 28.1396H23.4496C21.5995 28.1396 20.0996 29.6395 20.0996 31.4896C20.0996 33.3398 21.5995 34.8396 23.4496 34.8396H43.5496C45.3998 34.8396 46.8996 33.3398 46.8996 31.4896C46.8996 29.6395 45.3998 28.1396 43.5496 28.1396Z"/>
    </g>
    <defs>
    <clipPath id="clip0_525_411">
    <rect width="67" height="67" fill="white"/>
    </clipPath>
    </defs>
        </g>
  </symbol>

  <symbol id="4" viewBox="0 0 81 81">
    <path d="M40.0781 69.1871C40.3594 69.1871 40.6828 69.1168 41.0484 68.9762C41.4141 68.8355 41.7094 68.6527 41.9344 68.4277L70.3688 39.909C71.1 39.1777 71.6484 38.348 72.0141 37.4199C72.3797 36.4918 72.5625 35.5496 72.5625 34.5934C72.5625 33.6371 72.3797 32.6809 72.0141 31.7246C71.6484 30.7684 71.1 29.9246 70.3688 29.1934L55.1813 14.0059C54.45 13.2746 53.6063 12.7262 52.65 12.3605C51.6938 11.9949 50.7375 11.8121 49.7812 11.8121C48.825 11.8121 47.8828 11.9949 46.9547 12.3605C46.0266 12.7262 45.1969 13.2746 44.4656 14.0059L42.9469 15.5246L49.7812 22.4434C50.5125 23.2309 51.1594 24.1449 51.7219 25.1855C52.2844 26.2262 52.5656 27.3652 52.5656 28.6027C52.5656 30.7402 51.7359 32.6246 50.0766 34.2559C48.4172 35.8871 46.5187 36.7027 44.3812 36.7027C42.975 36.7027 41.8078 36.4918 40.8797 36.0699C39.9516 35.648 39.0938 35.0434 38.3063 34.2559L32.1469 28.0965L16.875 43.3684C16.5937 43.6496 16.3969 43.9449 16.2844 44.2543C16.1719 44.5637 16.1156 44.8871 16.1156 45.2246C16.1156 45.9559 16.3547 46.5605 16.8328 47.0387C17.3109 47.5168 17.9156 47.7559 18.6469 47.7559C18.9844 47.7559 19.3078 47.6715 19.6172 47.5027C19.9266 47.334 20.1938 47.1371 20.4188 46.9121L32.0625 35.2684L35.6063 38.8121L24.0469 50.3715C23.7656 50.6527 23.5687 50.9621 23.4562 51.2996C23.3437 51.6371 23.2875 51.9746 23.2875 52.3121C23.2875 52.9871 23.5406 53.5777 24.0469 54.084C24.5531 54.5902 25.1438 54.8434 25.8188 54.8434C26.1563 54.8434 26.4797 54.773 26.7891 54.6324C27.0984 54.4918 27.3656 54.309 27.5906 54.084L39.2344 42.4402L42.7781 45.984L31.2188 57.5434C30.9937 57.7684 30.8109 58.0637 30.6703 58.4293C30.5297 58.7949 30.4594 59.1465 30.4594 59.484C30.4594 60.159 30.7125 60.7496 31.2188 61.2559C31.725 61.7621 32.3156 62.0152 32.9906 62.0152C33.3281 62.0152 33.6375 61.959 33.9188 61.8465C34.2 61.734 34.4813 61.5371 34.7625 61.2559L46.4062 49.6121L49.95 53.1559L38.3063 64.7996C38.025 65.0809 37.8281 65.3902 37.7156 65.7277C37.6031 66.0652 37.5469 66.3746 37.5469 66.6559C37.5469 67.4434 37.7719 68.0621 38.2219 68.5121C38.6719 68.9621 39.2906 69.1871 40.0781 69.1871ZM40.0781 74.2496C38.2219 74.2496 36.5625 73.5606 35.1 72.1824C33.6375 70.8043 32.7656 69.1027 32.4844 67.0777C30.5719 66.7965 28.9687 66.009 27.675 64.7152C26.3812 63.4215 25.5938 61.8184 25.3125 59.9059C23.4 59.6246 21.8109 58.823 20.5453 57.5012C19.2797 56.1793 18.5063 54.5902 18.225 52.734C16.1438 52.4527 14.4281 51.609 13.0781 50.2027C11.7281 48.7965 11.0531 47.109 11.0531 45.1402C11.0531 44.184 11.2359 43.2277 11.6016 42.2715C11.9672 41.3152 12.5156 40.4715 13.2469 39.7402L32.1469 20.8402L41.4281 30.1215C41.8781 30.5715 42.3703 30.923 42.9047 31.1762C43.4391 31.4293 43.9594 31.5559 44.4656 31.5559C45.1969 31.5559 45.8859 31.2324 46.5328 30.5855C47.1797 29.9387 47.5031 29.2496 47.5031 28.5184C47.5031 28.1809 47.4047 27.8012 47.2078 27.3793C47.0109 26.9574 46.6875 26.5215 46.2375 26.0715L34.1719 14.0059C33.4406 13.2746 32.5969 12.7262 31.6406 12.3605C30.6844 11.9949 29.7281 11.8121 28.7719 11.8121C27.8156 11.8121 26.8734 11.9949 25.9453 12.3605C25.0172 12.7262 24.1875 13.2746 23.4562 14.0059L10.6313 26.8309C9.84375 27.6184 9.29531 28.448 8.98594 29.3199C8.67656 30.1918 8.49375 31.1621 8.4375 32.2309C8.38125 33.3559 8.59219 34.4387 9.07031 35.4793C9.54844 36.5199 10.125 37.4621 10.8 38.3059L7.17188 41.934C6.04687 40.6965 5.13281 39.2059 4.42969 37.4621C3.72656 35.7184 3.375 33.9465 3.375 32.1465C3.375 30.459 3.69844 28.8418 4.34531 27.2949C4.99219 25.748 5.90625 24.384 7.0875 23.2027L19.8281 10.4621C21.0656 9.22461 22.4719 8.31055 24.0469 7.71992C25.6219 7.1293 27.225 6.83398 28.8563 6.83398C30.4875 6.83398 32.0766 7.1293 33.6234 7.71992C35.1703 8.31055 36.5625 9.22461 37.8 10.4621L39.3187 11.9809L40.8375 10.4621C42.075 9.22461 43.4813 8.31055 45.0563 7.71992C46.6313 7.1293 48.2344 6.83398 49.8656 6.83398C51.4969 6.83398 53.0859 7.1293 54.6328 7.71992C56.1797 8.31055 57.5719 9.22461 58.8094 10.4621L73.9125 25.5652C75.15 26.8027 76.0781 28.209 76.6969 29.784C77.3156 31.359 77.625 32.9621 77.625 34.5934C77.625 36.2246 77.3156 37.8137 76.6969 39.3605C76.0781 40.9074 75.15 42.2996 73.9125 43.5371L45.4781 71.9715C44.7469 72.7027 43.9172 73.2652 42.9891 73.659C42.0609 74.0527 41.0906 74.2496 40.0781 74.2496V74.2496Z"/>
  </symbol>

  <symbol id="5" viewBox="0 0 81 81">
    <path d="M44.5 11.125L2.78125 33.375L44.5 55.625L86.2188 33.375L44.5 11.125Z"  stroke-width="5.5625" stroke-miterlimit="10" stroke-linecap="round" stroke-linejoin="round"/>
    <path d="M19.4688 42.2754V61.1879C19.4688 67.3066 30.5938 75.0941 44.5 75.0941C58.4062 75.0941 69.5312 67.3066 69.5312 61.1879V42.2754" stroke-width="5.5625" stroke-miterlimit="10" stroke-linecap="round" stroke-linejoin="round"/>
    <path d="M86.2188 33.375V69.5312" stroke-width="5.5625" stroke-miterlimit="10" stroke-linecap="round" stroke-linejoin="round"/>
  </symbol>

  <symbol id="6" viewBox="0 0 81 81">
    <path d="M20.3438 75.5625C25.159 75.5625 29.0625 71.659 29.0625 66.8438C29.0625 62.0285 25.159 58.125 20.3438 58.125C15.5285 58.125 11.625 62.0285 11.625 66.8438C11.625 71.659 15.5285 75.5625 20.3438 75.5625Z" stroke-width="5.8125" stroke-miterlimit="10" stroke-linecap="round" stroke-linejoin="round"/>
    <path d="M66.8438 75.5625C71.659 75.5625 75.5625 71.659 75.5625 66.8438C75.5625 62.0285 71.659 58.125 66.8438 58.125C62.0285 58.125 58.125 62.0285 58.125 66.8438C58.125 71.659 62.0285 75.5625 66.8438 75.5625Z" stroke-width="5.8125" stroke-miterlimit="10" stroke-linecap="round" stroke-linejoin="round"/>
    <path d="M81.375 55.2188H87.1875" stroke-width="5.8125" stroke-miterlimit="10" stroke-linecap="round" stroke-linejoin="round"/>
    <path d="M11.625 46.5H69.75" stroke-width="5.8125" stroke-miterlimit="10" stroke-linecap="round" stroke-linejoin="round"/>
    <path d="M37.7812 29.0625L29.0625 46.5" stroke-width="5.8125" stroke-miterlimit="10" stroke-linecap="round" stroke-linejoin="round"/>
    <path d="M75.5625 66.8438H87.1875C88.9313 66.8438 90.0938 65.6813 90.0938 63.9375V58.125C90.0938 51.7312 84.8625 46.5 78.4688 46.5H69.75L58.7063 33.1312C56.3813 30.5156 53.1844 29.0625 49.6969 29.0625H27.6094C23.25 29.0625 19.1813 31.6781 17.1469 35.4562L11.625 46.5H8.71875C5.52187 46.5 2.90625 49.1156 2.90625 52.3125V63.9375C2.90625 65.6813 4.06875 66.8438 5.8125 66.8438H11.625" stroke-width="5.8125" stroke-miterlimit="10" stroke-linecap="round" stroke-linejoin="round"/>
    <path d="M29.0625 66.8438H58.125" stroke-width="5.8125" stroke-miterlimit="10" stroke-linecap="round" stroke-linejoin="round"/>
  </symbol>
</svg>
