<svg width="82" height="82" viewBox="0 0 82 82" fill="none" xmlns="http://www.w3.org/2000/svg">
<path d="M74.3125 73.0312C71.75 70.9812 67.3937 70.9812 64.8312 73.0312C62.2687 75.0812 57.9125 75.0812 55.35 73.0312C52.7875 70.9812 48.4312 70.9812 45.8687 73.0312C43.3062 75.0812 38.95 75.0812 36.3875 73.0312C33.825 70.9812 29.4687 70.9812 26.9062 73.0312C24.3437 75.0812 19.9875 75.0812 17.425 73.0312C14.8625 70.9812 10.5062 70.9812 7.94373 73.0312" stroke="white" stroke-width="3" stroke-miterlimit="10" stroke-linecap="round" stroke-linejoin="round"/>
<path d="M41 38.4375L12.8125 48.6875L23.0625 74.3125" stroke="white" stroke-width="3" stroke-miterlimit="10" stroke-linecap="round" stroke-linejoin="round"/>
<path d="M41 38.4375L69.1875 48.6875L58.9375 74.3125" stroke="white" stroke-width="3" stroke-miterlimit="10" stroke-linecap="round" stroke-linejoin="round"/>
<path d="M23.0625 44.8438V28.1875C23.0625 25.3687 25.3687 23.0625 28.1875 23.0625H53.8125C56.6313 23.0625 58.9375 25.3687 58.9375 28.1875V44.8438" stroke="white" stroke-width="3" stroke-miterlimit="10" stroke-linecap="round" stroke-linejoin="round"/>
<path d="M30.75 30.75H51.25" stroke="white" stroke-width="3" stroke-miterlimit="10" stroke-linecap="round" stroke-linejoin="round"/>
<path d="M41 48.6875L16.4 57.6562" stroke="white" stroke-width="3" stroke-miterlimit="10" stroke-linecap="round" stroke-linejoin="round"/>
<path d="M41 48.6875L65.6 57.6562" stroke="white" stroke-width="3" stroke-miterlimit="10" stroke-linecap="round" stroke-linejoin="round"/>
<path d="M46.125 23.0623H35.875V10.2498C38.6938 7.43105 43.3062 7.43105 46.125 10.2498V23.0623Z" stroke="white" stroke-width="3" stroke-miterlimit="10" stroke-linecap="round" stroke-linejoin="round"/>
</svg>
