<svg width="80" height="80" viewBox="0 0 80 80" fill="none" xmlns="http://www.w3.org/2000/svg">
<path d="M13.3334 49.9998C13.3334 49.9998 16.6667 46.6665 26.6667 46.6665C36.6667 46.6665 43.3334 53.3332 53.3334 53.3332C63.3334 53.3332 66.6667 49.9998 66.6667 49.9998V9.99984C66.6667 9.99984 63.3334 13.3332 53.3334 13.3332C43.3334 13.3332 36.6667 6.6665 26.6667 6.6665C16.6667 6.6665 13.3334 9.99984 13.3334 9.99984V49.9998Z" stroke="white" stroke-width="3" stroke-linecap="round" stroke-linejoin="round"/>
<path d="M13.3334 73.3333V50" stroke="white" stroke-width="3" stroke-linecap="round" stroke-linejoin="round"/>
<path d="M40 38.9717C44.9706 38.9717 49 34.9422 49 29.9717C49 25.0011 44.9706 20.9717 40 20.9717C35.0294 20.9717 31 25.0011 31 29.9717C31 34.9422 35.0294 38.9717 40 38.9717Z" stroke="white" stroke-width="1.5"/>
<path d="M40.0001 33.8847C42.1612 33.8847 43.9131 32.1327 43.9131 29.9716C43.9131 27.8105 42.1612 26.0586 40.0001 26.0586C37.839 26.0586 36.087 27.8105 36.087 29.9716C36.087 32.1327 37.839 33.8847 40.0001 33.8847Z" fill="white"/>
</svg>
