<svg width="79" height="79" viewBox="0 0 79 79" fill="none" xmlns="http://www.w3.org/2000/svg">
<path d="M39.9474 37.8027C39.0834 40.0092 39.5463 42.6322 41.3207 44.4221C42.4779 45.5947 44.0209 46.2273 45.6719 46.2273C47.3228 46.2273 48.8504 45.5793 50.023 44.4221L58.6945 35.6889C61.0861 33.2818 61.0861 29.3781 58.6945 26.9711C57.5373 25.7984 55.9943 25.1658 54.3433 25.1658C53.5719 25.1658 52.8158 25.3047 52.106 25.5824L37.5096 10.8934C38.3736 8.68691 37.9107 6.06387 36.1363 4.27402C34.9791 3.1168 33.4361 2.46875 31.7851 2.46875C30.1496 2.46875 28.6066 3.1168 27.434 4.27402L18.7625 13.0072C16.3709 15.4143 16.3709 19.318 18.7625 21.725C19.9197 22.8977 21.4627 23.5303 23.1137 23.5303C23.8851 23.5303 24.6412 23.3914 25.351 23.1137L30.0416 27.8352L14.4268 43.558L10.9551 47.0451C9.52017 48.4801 9.52017 50.8408 10.9551 52.2758C11.6495 52.9701 12.5752 53.3559 13.5627 53.3559C14.5502 53.3559 15.476 52.9701 16.1703 52.2758L19.642 48.7887L35.2568 33.0812L39.9474 37.8027ZM14.4268 50.5322C14.1954 50.7637 13.8868 50.8871 13.5627 50.8871C13.2387 50.8871 12.9301 50.7637 12.6987 50.5322C12.2204 50.0539 12.2204 49.267 12.6987 48.7887L15.2909 46.1811L17.0189 47.9246L14.4268 50.5322ZM18.7779 46.1656L17.0498 44.4221L31.8006 29.5941L33.5287 31.3377L18.7779 46.1656ZM56.9355 28.7146C58.3705 30.165 58.3705 32.5104 56.9355 33.9607L48.264 42.6939C47.5697 43.3883 46.6439 43.774 45.6719 43.774C44.6998 43.774 43.774 43.3883 43.0797 42.6939C41.6447 41.2436 41.6447 38.8982 43.0797 37.4479L51.7512 28.7146C52.4455 28.0203 53.3713 27.6346 54.3433 27.6346C55.3308 27.6346 56.2412 28.0203 56.9355 28.7146ZM20.5215 19.9969C19.0865 18.5465 19.0865 16.2012 20.5215 14.7508L29.193 6.01758C29.8873 5.32324 30.8131 4.9375 31.7851 4.9375C32.7726 4.9375 33.683 5.32324 34.3773 6.01758C35.8123 7.46797 35.8123 9.81328 34.3773 11.2637L25.7058 19.9969C25.0115 20.6912 24.0857 21.077 23.1137 21.077C22.1416 21.077 21.2158 20.6912 20.5215 19.9969ZM27.4494 21.725L36.1209 13.0072L49.9922 26.9711L41.3207 35.6889L27.4494 21.725Z" fill="white"/>
<path d="M64.1875 66.6562H60.4844V62.9531C60.4844 62.2742 59.9289 61.7188 59.25 61.7188H29.625C28.9461 61.7188 28.3906 62.2742 28.3906 62.9531V66.6562H24.6875C24.0086 66.6562 23.4531 67.2117 23.4531 67.8906V75.2969C23.4531 75.9758 24.0086 76.5312 24.6875 76.5312H64.1875C64.8664 76.5312 65.4219 75.9758 65.4219 75.2969V67.8906C65.4219 67.2117 64.8664 66.6562 64.1875 66.6562ZM30.8594 64.1875H58.0156V66.6562H30.8594V64.1875ZM62.9531 74.0625H25.9219V69.125H29.625H59.25H62.9531V74.0625Z" fill="white"/>
<path d="M43.2031 50.6094V58.0156C43.2031 58.6945 43.7586 59.25 44.4375 59.25C45.1164 59.25 45.6719 58.6945 45.6719 58.0156V50.6094C45.6719 49.9305 45.1164 49.375 44.4375 49.375C43.7586 49.375 43.2031 49.9305 43.2031 50.6094Z" fill="white"/>
<path d="M31.2145 52.1986C30.7361 52.6769 30.7361 53.4638 31.2145 53.9421L36.152 58.8796C36.3988 59.1265 36.7074 59.2345 37.0314 59.2345C37.3555 59.2345 37.6641 59.1111 37.9109 58.8796C38.3893 58.4013 38.3893 57.6144 37.9109 57.1361L32.9734 52.1986C32.4797 51.7203 31.7082 51.7203 31.2145 52.1986Z" fill="white"/>
<path d="M55.902 52.1986L50.9645 57.1361C50.4861 57.6144 50.4861 58.4013 50.9645 58.8796C51.2113 59.1265 51.5199 59.2345 51.8439 59.2345C52.168 59.2345 52.4766 59.1111 52.7234 58.8796L57.6609 53.9421C58.1393 53.4638 58.1393 52.6769 57.6609 52.1986C57.1672 51.7203 56.3957 51.7203 55.902 52.1986Z" fill="white"/>
</svg>
