<svg width="72" height="72" viewBox="0 0 72 72" fill="none" xmlns="http://www.w3.org/2000/svg">
<path d="M42.075 21.6L41.4 20.25H36H30.6L30.15 21.825C28.8 25.65 26.1 29.025 22.5 31.5C8.77499 40.725 11.25 59.625 27 65.7C32.85 67.95 39.375 67.95 45 65.7C60.75 59.625 63.225 40.5 49.725 31.275C46.125 28.8 43.425 25.65 42.075 21.6Z" stroke="white" stroke-width="3" stroke-miterlimit="10" stroke-linecap="round" stroke-linejoin="round"/>
<path d="M23.4 7.875L31.05 20.25" stroke="white" stroke-width="3" stroke-miterlimit="10" stroke-linecap="round" stroke-linejoin="round"/>
<path d="M26.1 10.3498L28.575 7.8748C29.925 6.5248 32.175 6.5248 33.525 7.8748C34.875 9.2248 37.125 9.2248 38.475 7.8748C39.825 6.5248 42.075 6.5248 43.425 7.8748L45.9 10.3498" stroke="white" stroke-width="3" stroke-miterlimit="10" stroke-linecap="round" stroke-linejoin="round"/>
<path d="M48.6 20.25H40.95L48.6 7.875" stroke="white" stroke-width="3" stroke-miterlimit="10" stroke-linecap="round" stroke-linejoin="round"/>
<path d="M36 36V38.25" stroke="white" stroke-width="3" stroke-miterlimit="10" stroke-linecap="round" stroke-linejoin="round"/>
<path d="M36 51.75V54" stroke="white" stroke-width="3" stroke-miterlimit="10" stroke-linecap="round" stroke-linejoin="round"/>
<path d="M38.25 38.25H34.875C33.075 38.25 31.5 39.825 31.5 41.625C31.5 43.425 33.075 45 34.875 45H37.125C38.925 45 40.5 46.575 40.5 48.375C40.5 50.175 38.925 51.75 37.125 51.75H33.75" stroke="white" stroke-width="3" stroke-miterlimit="10" stroke-linecap="round" stroke-linejoin="round"/>
</svg>
