<svg width="265" height="283" viewBox="0 0 265 283" fill="none" xmlns="http://www.w3.org/2000/svg">
<g opacity="0.6" filter="url(#filter0_d_429_148)">
<path d="M134.947 135.803C134.083 138.009 134.546 140.632 136.321 142.422C137.478 143.595 139.021 144.227 140.672 144.227C142.323 144.227 143.85 143.579 145.023 142.422L153.695 133.689C156.086 131.282 156.086 127.378 153.695 124.971C152.537 123.798 150.994 123.166 149.343 123.166C148.572 123.166 147.816 123.305 147.106 123.582L132.51 108.893C133.374 106.687 132.911 104.064 131.136 102.274C129.979 101.117 128.436 100.469 126.785 100.469C125.15 100.469 123.607 101.117 122.434 102.274L113.762 111.007C111.371 113.414 111.371 117.318 113.762 119.725C114.92 120.898 116.463 121.53 118.114 121.53C118.885 121.53 119.641 121.391 120.351 121.114L125.042 125.835L109.427 141.558L105.955 145.045C104.52 146.48 104.52 148.841 105.955 150.276C106.649 150.97 107.575 151.356 108.563 151.356C109.55 151.356 110.476 150.97 111.17 150.276L114.642 146.789L130.257 131.081L134.947 135.803ZM109.427 148.532C109.195 148.764 108.887 148.887 108.563 148.887C108.239 148.887 107.93 148.764 107.699 148.532C107.22 148.054 107.22 147.267 107.699 146.789L110.291 144.181L112.019 145.925L109.427 148.532ZM113.778 144.166L112.05 142.422L126.801 127.594L128.529 129.338L113.778 144.166ZM151.936 126.715C153.37 128.165 153.37 130.51 151.936 131.961L143.264 140.694C142.57 141.388 141.644 141.774 140.672 141.774C139.7 141.774 138.774 141.388 138.08 140.694C136.645 139.244 136.645 136.898 138.08 135.448L146.751 126.715C147.445 126.02 148.371 125.635 149.343 125.635C150.331 125.635 151.241 126.02 151.936 126.715ZM115.521 117.997C114.087 116.546 114.087 114.201 115.521 112.751L124.193 104.018C124.887 103.323 125.813 102.938 126.785 102.938C127.773 102.938 128.683 103.323 129.377 104.018C130.812 105.468 130.812 107.813 129.377 109.264L120.706 117.997C120.012 118.691 119.086 119.077 118.114 119.077C117.142 119.077 116.216 118.691 115.521 117.997ZM122.449 119.725L131.121 111.007L144.992 124.971L136.321 133.689L122.449 119.725Z" fill="white"/>
<path d="M159.188 164.656H155.484V160.953C155.484 160.274 154.929 159.719 154.25 159.719H124.625C123.946 159.719 123.391 160.274 123.391 160.953V164.656H119.688C119.009 164.656 118.453 165.212 118.453 165.891V173.297C118.453 173.976 119.009 174.531 119.688 174.531H159.188C159.866 174.531 160.422 173.976 160.422 173.297V165.891C160.422 165.212 159.866 164.656 159.188 164.656ZM125.859 162.188H153.016V164.656H125.859V162.188ZM157.953 172.062H120.922V167.125H124.625H154.25H157.953V172.062Z" fill="white"/>
<path d="M138.203 148.609V156.016C138.203 156.695 138.759 157.25 139.438 157.25C140.116 157.25 140.672 156.695 140.672 156.016V148.609C140.672 147.93 140.116 147.375 139.438 147.375C138.759 147.375 138.203 147.93 138.203 148.609Z" fill="white"/>
<path d="M126.214 150.199C125.736 150.677 125.736 151.464 126.214 151.942L131.152 156.88C131.399 157.127 131.707 157.235 132.031 157.235C132.355 157.235 132.664 157.111 132.911 156.88C133.389 156.401 133.389 155.614 132.911 155.136L127.973 150.199C127.48 149.72 126.708 149.72 126.214 150.199Z" fill="white"/>
<path d="M150.902 150.199L145.964 155.136C145.486 155.614 145.486 156.401 145.964 156.88C146.211 157.127 146.52 157.235 146.844 157.235C147.168 157.235 147.477 157.111 147.723 156.88L152.661 151.942C153.139 151.464 153.139 150.677 152.661 150.199C152.167 149.72 151.396 149.72 150.902 150.199Z" fill="white"/>
</g>
<defs>
<filter id="filter0_d_429_148" x="-9" y="-2" width="287" height="287" filterUnits="userSpaceOnUse" color-interpolation-filters="sRGB">
<feFlood flood-opacity="0" result="BackgroundImageFix"/>
<feColorMatrix in="SourceAlpha" type="matrix" values="0 0 0 0 0 0 0 0 0 0 0 0 0 0 0 0 0 0 127 0" result="hardAlpha"/>
<feOffset dy="4"/>
<feGaussianBlur stdDeviation="52"/>
<feComposite in2="hardAlpha" operator="out"/>
<feColorMatrix type="matrix" values="0 0 0 0 0 0 0 0 0 0 0 0 0 0 0 0 0 0 1 0"/>
<feBlend mode="normal" in2="BackgroundImageFix" result="effect1_dropShadow_429_148"/>
<feBlend mode="normal" in="SourceGraphic" in2="effect1_dropShadow_429_148" result="shape"/>
</filter>
</defs>
</svg>
