<?xml version="1.0" standalone="no"?>
<!DOCTYPE svg PUBLIC "-//W3C//DTD SVG 20010904//EN"
 "http://www.w3.org/TR/2001/REC-SVG-20010904/DTD/svg10.dtd">
<svg version="1.0" xmlns="http://www.w3.org/2000/svg"
 width="74.000000pt" height="74.000000pt" viewBox="0 0 74.000000 74.000000"
 preserveAspectRatio="xMidYMid meet">
<metadata>
Created by potrace 1.14, written by Peter Selinger 2001-2017
</metadata>
<g transform="translate(0.000000,74.000000) scale(0.100000,-0.100000)"
fill="#000000" stroke="none">
<path d="M329 709 c-55 -8 -151 -48 -144 -59 6 -10 58 -6 102 8 50 16 152 8
204 -15 110 -49 172 -147 172 -270 0 -57 -5 -83 -27 -126 -49 -101 -51 -95
-51 115 l0 192 -38 2 c-37 1 -42 -2 -98 -73 l-59 -74 -45 62 c-25 34 -45 57
-46 53 -9 -78 0 -114 41 -173 24 -34 46 -61 50 -61 5 0 32 30 62 66 l53 66 3
-191 c1 -105 6 -191 10 -191 13 0 72 39 106 71 18 16 48 59 66 95 112 219 -28
481 -270 506 -25 3 -66 2 -91 -3z"/>
<path d="M87 631 c-16 -5 -67 -52 -67 -62 0 -5 39 -10 88 -11 l87 -3 2 -170
c1 -93 2 -177 2 -185 1 -9 16 1 41 25 l41 40 -2 145 -1 145 61 3 c53 3 64 7
81 30 11 15 20 31 20 36 0 9 -324 16 -353 7z"/>
<path d="M68 501 c-18 -35 -23 -66 -25 -131 -2 -79 1 -91 33 -157 62 -130 177
-200 322 -196 78 2 92 9 92 49 0 32 -2 35 -22 28 -84 -27 -197 -1 -263 60 -98
92 -124 230 -64 349 11 20 18 38 17 38 -2 1 -18 2 -35 4 -30 2 -35 -2 -55 -44z"/>
</g>
</svg>
