<svg width="89" height="84" viewBox="0 0 89 84" fill="none" xmlns="http://www.w3.org/2000/svg">
<path d="M42.767 3.00803C43.5364 1.67256 45.4636 1.67256 46.233 3.00803L58.7679 24.7657C59.0491 25.2537 59.523 25.6005 60.0732 25.721L84.4482 31.0573C85.9389 31.3837 86.5297 33.1921 85.5191 34.3355L68.8787 53.1636C68.5098 53.5809 68.3317 54.1331 68.3872 54.6873L70.9009 79.7864C71.0539 81.3142 69.4995 82.4375 68.0969 81.8126L45.3139 71.6626C44.7958 71.4318 44.2042 71.4318 43.6861 71.6626L20.9031 81.8126C19.5005 82.4375 17.9461 81.3142 18.0991 79.7864L20.6128 54.6873C20.6683 54.1331 20.4902 53.5809 20.1213 53.1636L3.48091 34.3355C2.47033 33.1921 3.06108 31.3837 4.55178 31.0573L28.9269 25.721C29.477 25.6005 29.9509 25.2537 30.2321 24.7657L42.767 3.00803Z" stroke="red" stroke-width="4"/>
</svg>
