<svg width="40" height="40" viewBox="0 0 40 40" fill="none" xmlns="http://www.w3.org/2000/svg">
<g id="15718396731536065003 (1) 1" clip-path="url(#clip0_356_1155)">
<path id="Vector" d="M20 40C31.0457 40 40 31.0457 40 20C40 8.9543 31.0457 0 20 0C8.9543 0 0 8.9543 0 20C0 31.0457 8.9543 40 20 40Z" fill="#F0F0F0"/>
<path id="Vector_2" d="M26.9564 20.0004C26.9564 21.7396 23.8419 26.0874 19.9999 26.0874C16.158 26.0874 13.0435 21.7396 13.0435 20.0004C13.0435 16.1584 16.158 13.0439 19.9999 13.0439C23.8419 13.0439 26.9564 16.1584 26.9564 20.0004Z" fill="#D80027"/>
<path id="Vector_3" d="M26.9564 20C26.9564 23.842 23.8419 26.9565 19.9999 26.9565C16.158 26.9565 13.0435 23.842 13.0435 20" fill="#0052B4"/>
<path id="Vector_4" d="M29.2228 24.3038L27.3782 26.1484L28.6079 27.3782L30.4525 25.5336L29.2228 24.3038Z" fill="black"/>
<path id="Vector_5" d="M26.1481 27.379L24.3035 29.2236L25.5332 30.4534L27.3778 28.6088L26.1481 27.379Z" fill="black"/>
<path id="Vector_6" d="M32.9125 27.9923L31.0679 29.8369L32.2976 31.0667L34.1422 29.2221L32.9125 27.9923Z" fill="black"/>
<path id="Vector_7" d="M29.8378 31.0675L27.9932 32.9121L29.2229 34.1419L31.0675 32.2973L29.8378 31.0675Z" fill="black"/>
<path id="Vector_8" d="M31.0676 26.1486L29.223 27.9932L30.4528 29.2229L32.2974 27.3783L31.0676 26.1486Z" fill="black"/>
<path id="Vector_9" d="M27.9938 29.2228L26.1492 31.0674L27.3789 32.2971L29.2235 30.4525L27.9938 29.2228Z" fill="black"/>
<path id="Vector_10" d="M26.1497 8.9319L31.0686 13.8508L32.2983 12.6211L27.3794 7.70215L26.1497 8.9319Z" fill="black"/>
<path id="Vector_11" d="M24.3048 10.7775L26.1494 12.6221L27.3791 11.3924L25.5345 9.54779L24.3048 10.7775Z" fill="black"/>
<path id="Vector_12" d="M27.3788 13.8517L29.2234 15.6963L30.4531 14.4666L28.6085 12.622L27.3788 13.8517Z" fill="black"/>
<path id="Vector_13" d="M27.9924 7.08778L29.837 8.93237L31.0668 7.70263L29.2222 5.85804L27.9924 7.08778Z" fill="black"/>
<path id="Vector_14" d="M31.0681 10.1622L32.9127 12.0068L34.1425 10.7771L32.2979 8.9325L31.0681 10.1622Z" fill="black"/>
<path id="Vector_15" d="M12.0066 32.9121L7.08765 27.9932L5.8579 29.2229L10.7768 34.1418L12.0066 32.9121Z" fill="black"/>
<path id="Vector_16" d="M13.8508 31.0672L12.0062 29.2227L10.7765 30.4523L12.6211 32.2969L13.8508 31.0672Z" fill="black"/>
<path id="Vector_17" d="M10.7767 27.993L8.93213 26.1484L7.70238 27.3782L9.54698 29.2228L10.7767 27.993Z" fill="black"/>
<path id="Vector_18" d="M15.6958 29.2226L10.7769 24.3037L9.54711 25.5335L14.466 30.4524L15.6958 29.2226Z" fill="black"/>
<path id="Vector_19" d="M7.08766 12.0068L12.0066 7.08789L10.7768 5.85814L5.85792 10.7771L7.08766 12.0068Z" fill="black"/>
<path id="Vector_20" d="M8.93166 13.8506L13.8506 8.93164L12.6208 7.70189L7.70191 12.6208L8.93166 13.8506Z" fill="black"/>
<path id="Vector_21" d="M10.7774 15.696L15.6963 10.7771L14.4666 9.54741L9.54767 14.4663L10.7774 15.696Z" fill="black"/>
</g>
<defs>
<clipPath id="clip0_356_1155">
<rect width="40" height="40" fill="white"/>
</clipPath>
</defs>
</svg>
